<svg width="600" height="160" viewBox="0 0 600 160" xmlns="http://www.w3.org/2000/svg">

<style>
.line{stroke:black;stroke-width:2;fill:none}
.thin{stroke:black;stroke-width:1.5;fill:none}
.text{font-family:Arial;font-size:16px}
</style>

<rect width="100%" height="100%" fill="white"/>

<text x="20" y="15" class="text">Cantilever Beam with Uniformly Distributed Load</text>

<line x1="120" y1="50" x2="120" y2="110" class="line"/>

<line x1="120" y1="80" x2="520" y2="80" class="line"/>

<g>
<line x1="140" y1="50" x2="140" y2="80" class="thin"/>
<polygon points="135,65 145,65 140,80" fill="black"/>

<line x1="245" y1="50" x2="245" y2="80" class="thin"/>
<polygon points="240,65 250,65 245,80" fill="black"/>

<line x1="355" y1="50" x2="355" y2="80" class="thin"/>
<polygon points="350,65 360,65 355,80" fill="black"/>

<line x1="460" y1="50" x2="460" y2="80" class="thin"/>
<polygon points="455,65 465,65 460,80" fill="black"/>

<line x1="480" y1="50" x2="480" y2="80" class="thin"/>
<polygon points="475,80 485,80 480,95" fill="black"/>
</g>

<text x="530" y="40" class="text">w</text>

</svg>