<svg xmlns="http://www.w3.org/2000/svg" viewBox="0 0 1000 300">

  <!-- 背景 -->
  <rect width="100%" height="100%" fill="white"/>

  <!-- ===== 矢印定義 ===== -->
  <defs>
    <marker id="arrow" markerWidth="10" markerHeight="10" refX="8" refY="3" orient="auto">
      <polygon points="0 0, 10 3, 0 6" fill="black"/>
    </marker>

    <pattern id="hatch" patternUnits="userSpaceOnUse" width="6" height="6">
      <path d="M0,0 l6,6" stroke="red" stroke-width="1"/>
    </pattern>
  </defs>

  <!-- ===== 車 ===== -->
  <g stroke="black" stroke-width="3" fill="none">
    <path d="M50 180 L90 130 L150 120 L220 130 L250 180 L230 210 L70 210 Z"/>
    <circle cx="110" cy="220" r="15"/>
    <circle cx="200" cy="220" r="15"/>
  </g>

  <!-- 車の拡大範囲 -->
  <rect x="140" y="140" width="40" height="40"
        stroke="red" stroke-width="2" fill="none"/>

  <!-- 矢印①：車→メッシュ -->
  <line x1="180" y1="160" x2="350" y2="160"
        stroke="black" stroke-width="3" marker-end="url(#arrow)"/>

  <!-- ===== メッシュ ===== -->
  <rect x="350" y="80" width="200" height="160"
        fill="none" stroke="black" stroke-width="3"/>

  <!-- メッシュ線 -->
  <g stroke="black" stroke-width="1">
    <!-- 縦 -->
    <line x1="380" y1="80" x2="380" y2="240"/>
    <line x1="410" y1="80" x2="410" y2="240"/>
    <line x1="440" y1="80" x2="440" y2="240"/>
    <line x1="470" y1="80" x2="470" y2="240"/>
    <line x1="500" y1="80" x2="500" y2="240"/>

    <!-- 横 -->
    <line x1="350" y1="110" x2="550" y2="110"/>
    <line x1="350" y1="140" x2="550" y2="140"/>
    <line x1="350" y1="170" x2="550" y2="170"/>
    <line x1="350" y1="200" x2="550" y2="200"/>
  </g>

  <!-- ハッチした要素 -->
  <rect x="410" y="140" width="30" height="30"
        fill="url(#hatch)" stroke="red" stroke-width="2"/>

  <!-- 矢印②：要素→拡大 -->
  <line x1="425" y1="170" x2="700" y2="170"
        stroke="black" stroke-width="3" marker-end="url(#arrow)"/>

  <!-- ===== 要素拡大 ===== -->
  <rect x="700" y="110" width="120" height="120"
        fill="none" stroke="black" stroke-width="3"/>

  <!-- 節点 -->
  <circle cx="700" cy="110" r="5" fill="red"/>
  <circle cx="820" cy="110" r="5" fill="red"/>
  <circle cx="700" cy="230" r="5" fill="red"/>
  <circle cx="820" cy="230" r="5" fill="red"/>

  <!-- ラベル -->
  <text x="705" y="100" font-size="14">Node</text>
  <text x="730" y="250" font-size="14">Element</text>

</svg>